<svg width="18" height="18" viewBox="0 0 18 18" fill="none" xmlns="http://www.w3.org/2000/svg">
    <path d="M17.3293 5.30975C17.3179 3.51344 16.517 2.1504 14.9673 1.24307C14.2853 0.843621 13.5317 0.670797 12.7413 0.670389C10.2464 0.668351 7.75142 0.662237 5.25647 0.672019C3.22578 0.679764 1.52932 1.91929 0.886938 3.85501C0.792373 4.14033 0.757727 4.44604 0.695771 4.74237C0.684765 4.79495 0.675798 4.84794 0.666016 4.90052V13.1024C0.710852 13.3518 0.735309 13.607 0.803379 13.8499C1.32022 15.6947 2.51899 16.8279 4.38786 17.2501C4.55539 17.288 4.7278 17.306 4.89777 17.3333H13.1012C13.3511 17.2885 13.6063 17.264 13.8496 17.1959C15.6924 16.6799 16.8288 15.4832 17.2445 13.6163C17.3114 13.3176 17.3285 13.0029 17.3293 12.6956C17.3358 10.2336 17.3448 7.77169 17.3293 5.30975ZM9.00684 13.5687C6.49762 13.5829 4.43025 11.5188 4.43147 9.00062C4.4327 6.48488 6.46624 4.44848 8.99217 4.43422C11.5014 4.41995 13.5688 6.48366 13.5675 9.00184C13.5663 11.5176 11.5328 13.554 9.00684 13.5687ZM13.8431 5.54657C13.089 5.54413 12.4548 4.90908 12.4552 4.15664C12.4552 3.40175 13.0874 2.77241 13.8451 2.77322C14.6069 2.77363 15.231 3.39849 15.2289 4.15908C15.2273 4.91723 14.5963 5.54902 13.8431 5.54657Z" fill="#555555"/>
</svg>


