<svg width="20" height="20" viewBox="0 0 20 20" fill="none" xmlns="http://www.w3.org/2000/svg">
    <path d="M16.9854 16.9614C15.1299 14.254 13.2728 11.5475 11.4164 8.84056C11.3922 8.8053 11.37 8.76859 11.3398 8.72175C11.6649 8.3427 11.9885 7.96527 12.3124 7.58803C13.9957 5.62749 15.6791 3.66677 17.3624 1.70605C17.3729 1.69375 17.3813 1.67983 17.3907 1.66663H15.9611C14.2139 3.70113 12.4666 5.73582 10.6916 7.80269C10.6703 7.76417 10.6551 7.73108 10.6348 7.7016C9.27181 5.71339 7.90842 3.72555 6.54539 1.73734C6.53038 1.71527 6.51971 1.69032 6.50687 1.66663H1.66602C1.70797 1.73535 1.74667 1.80624 1.79206 1.87243C3.83796 4.85673 5.8844 7.84067 7.93085 10.8248C7.95218 10.8559 7.97262 10.8877 8.00246 10.9328C7.83626 11.1277 7.66916 11.3246 7.5008 11.5207C5.59831 13.7362 3.69564 15.9516 1.79333 18.1673C1.74812 18.2201 1.70833 18.2778 1.66602 18.3333H3.09559C3.74302 17.5757 4.38918 16.8171 5.03787 16.0606C6.19112 14.7157 7.34599 13.3718 8.50014 12.0278C8.54228 11.9786 8.58568 11.9307 8.63596 11.8733C8.66851 11.9128 8.69745 11.9431 8.72096 11.9773C10.1518 14.0634 11.5823 16.1496 13.0126 18.2362C13.0337 18.2671 13.0507 18.3009 13.0697 18.3333H17.9104C17.6023 17.8759 17.2972 17.4164 16.9854 16.9614ZM15.767 17.2972C15.15 17.2978 14.5329 17.2945 13.9159 17.3003C13.8011 17.3012 13.7304 17.2685 13.6633 17.1725C10.3491 12.4177 7.03223 7.66453 3.71589 2.9112C3.68533 2.86744 3.65748 2.82168 3.60865 2.74681C4.21394 2.74681 4.78758 2.7696 5.35833 2.73813C5.69596 2.71951 5.88205 2.83832 6.07321 3.11357C9.3116 7.77593 12.5628 12.4294 15.8112 17.0849C15.8533 17.1453 15.894 17.2066 15.9493 17.2876C15.8699 17.292 15.8186 17.2971 15.767 17.2972Z" fill="#555555"/>
</svg>