<svg width="40" height="30" viewBox="0 0 40 30" fill="none" xmlns="http://www.w3.org/2000/svg">
    <g clip-path="url(#clip0_2668_4099)">
        <path d="M16.8234 29.4567C11.3396 27.4704 5.70868 26.8829 0 26.5025V1.37463C0.177608 1.57116 0.299517 1.69097 0.40461 1.82443C1.46185 3.16017 2.52855 4.4875 3.55742 5.84321C3.75709 6.10594 3.90422 6.48323 3.90528 6.80902C3.92629 11.7179 3.92629 16.6269 3.90423 21.5358C3.90107 22.1285 3.98935 22.3839 4.67666 22.4585C7.96084 22.82 11.2313 23.2793 14.361 24.4237C14.7593 24.5698 14.9716 24.7884 15.1209 25.1762C15.6558 26.5761 16.2254 27.9622 16.8234 29.4567Z" fill="#FF782D"/>
        <path d="M39.3012 1.36411V26.5025C33.6114 26.885 27.9837 27.4599 22.5293 29.4472C22.586 29.257 22.6218 29.092 22.6838 28.9385C23.1882 27.6743 23.7105 26.4174 24.1982 25.1468C24.339 24.7789 24.545 24.5719 24.9181 24.4342C27.4918 23.4894 30.1706 23.027 32.8716 22.6603C33.5063 22.5741 34.1421 22.4585 34.7801 22.4364C35.2908 22.4196 35.3969 22.2147 35.3959 21.7428C35.3801 16.8328 35.3927 11.9239 35.377 7.01393C35.3749 6.50423 35.4989 6.10382 35.8247 5.70657C36.863 4.43494 37.8666 3.13283 38.8861 1.84438C38.9943 1.70671 39.1141 1.57955 39.3012 1.36411Z" fill="#FF782D"/>
        <path d="M17.4908 16.8644C17.4824 17.7503 17.9259 18.3683 18.6962 18.7928C18.8823 18.8948 19.1156 19.1365 19.1166 19.3152C19.1408 22.7811 19.1345 26.2471 19.1313 29.7131C19.1313 29.7625 19.1019 29.8129 19.042 30C18.5806 28.8587 18.1624 27.834 17.7525 26.8062C16.2822 23.129 14.8088 19.4518 13.3575 15.7661C13.2524 15.4971 13.2324 15.1387 13.3102 14.8613C13.7726 13.225 14.2623 11.5971 14.7741 9.97549C14.8982 9.58455 14.8277 9.37226 14.4935 9.13054C11.8452 7.21469 8.88365 5.9935 5.76027 5.11176C5.46076 5.02769 5.14653 4.8196 4.94895 4.57894C3.90748 3.30941 2.90068 2.0115 1.88337 0.722007C1.73729 0.537042 1.60067 0.344721 1.40625 0.0830383C6.42236 0.360485 10.913 1.90746 15.0295 4.56107C16.2738 5.36294 17.4614 6.25308 18.6815 7.09278C19.0031 7.31452 19.1502 7.56885 19.145 7.98607C19.1219 10.089 19.1271 12.193 19.1418 14.2969C19.145 14.6585 19.0662 14.8571 18.6983 15.0168C17.9164 15.3563 17.4992 16.0047 17.4908 16.8644Z" fill="#FF782D"/>
        <path d="M37.8696 0.137673C37.7036 0.353114 37.5386 0.569607 37.3705 0.783998C36.3658 2.05878 35.3716 3.34197 34.3448 4.59889C34.1588 4.8259 33.8635 5.02347 33.5808 5.10229C30.4732 5.97142 27.5326 7.19155 24.8843 9.06852C24.4923 9.34597 24.4019 9.59084 24.5522 10.0564C25.0693 11.6559 25.539 13.2702 26.0046 14.8844C26.0708 15.1146 26.0929 15.4099 26.0077 15.6253C24.1413 20.3314 22.257 25.0301 20.3747 29.7299C20.3548 29.7814 20.3148 29.8266 20.2308 29.959C20.2003 29.7572 20.1677 29.6374 20.1677 29.5176C20.1645 26.1704 20.1708 22.8232 20.1582 19.477C20.1561 19.1092 20.2518 18.921 20.6112 18.7613C21.3878 18.4145 21.8061 17.7692 21.8135 16.9074C21.8198 16.0173 21.391 15.3636 20.5891 15.0074C20.2539 14.8581 20.1561 14.6858 20.1582 14.34C20.1719 12.1961 20.1572 10.0511 20.1782 7.90724C20.1803 7.68234 20.2907 7.37652 20.4578 7.2462C24.3515 4.22056 28.5237 1.72669 33.421 0.698872C34.864 0.395152 36.3363 0.229104 37.795 0C37.8192 0.0462412 37.8444 0.0914314 37.8696 0.137673Z" fill="#FF782D"/>
    </g>
    <defs>
        <clipPath id="clip0_2668_4099">
            <rect width="39.3008" height="30" fill="white"/>
        </clipPath>
    </defs>
</svg>
