<svg width="190" height="17" viewBox="0 0 190 17" fill="none" xmlns="http://www.w3.org/2000/svg">
    <g clip-path="url(#clip0_2616_1727)">
        <path d="M7.99992 12.0134L12.1199 14.5L11.0266 9.81337L14.6666 6.66004L9.87325 6.25337L7.99992 1.83337L6.12659 6.25337L1.33325 6.66004L4.97325 9.81337L3.87992 14.5L7.99992 12.0134Z" fill="#F4BF08"/>
    </g>
    <g clip-path="url(#clip1_2616_1727)">
        <path d="M27.9999 12.0134L32.1199 14.5L31.0266 9.81337L34.6666 6.66004L29.8733 6.25337L27.9999 1.83337L26.1266 6.25337L21.3333 6.66004L24.9733 9.81337L23.8799 14.5L27.9999 12.0134Z" fill="#F4BF08"/>
    </g>
    <g clip-path="url(#clip2_2616_1727)">
        <path d="M47.9999 12.0134L52.1199 14.5L51.0266 9.81337L54.6666 6.66004L49.8733 6.25337L47.9999 1.83337L46.1266 6.25337L41.3333 6.66004L44.9733 9.81337L43.8799 14.5L47.9999 12.0134Z" fill="#F4BF08"/>
    </g>
    <g clip-path="url(#clip3_2616_1727)">
        <path d="M67.9999 12.0134L72.1199 14.5L71.0266 9.81337L74.6666 6.66004L69.8733 6.25337L67.9999 1.83337L66.1266 6.25337L61.3333 6.66004L64.9733 9.81337L63.8799 14.5L67.9999 12.0134Z" fill="#9D9D9D"/>
    </g>
    <g clip-path="url(#clip4_2616_1727)">
        <path d="M87.9999 12.0134L92.1199 14.5L91.0266 9.81337L94.6666 6.66004L89.8733 6.25337L87.9999 1.83337L86.1266 6.25337L81.3333 6.66004L84.9733 9.81337L83.8799 14.5L87.9999 12.0134Z" fill="#9D9D9D"/>
    </g>
    <defs>
        <clipPath id="clip0_2616_1727">
            <rect width="16" height="16" fill="white" transform="translate(0 0.5)"/>
        </clipPath>
        <clipPath id="clip1_2616_1727">
            <rect width="16" height="16" fill="white" transform="translate(20 0.5)"/>
        </clipPath>
        <clipPath id="clip2_2616_1727">
            <rect width="16" height="16" fill="white" transform="translate(40 0.5)"/>
        </clipPath>
        <clipPath id="clip3_2616_1727">
            <rect width="16" height="16" fill="white" transform="translate(60 0.5)"/>
        </clipPath>
        <clipPath id="clip4_2616_1727">
            <rect width="16" height="16" fill="white" transform="translate(80 0.5)"/>
        </clipPath>
    </defs>
</svg>
